<?xml version="1.0" encoding="UTF-8" standalone="no"?>
<!-- Generator: Adobe Illustrator 14.0.0, SVG Export Plug-In . SVG Version: 6.00 Build 43363)  -->

<svg
   xmlns:dc="http://purl.org/dc/elements/1.1/"
   xmlns:cc="http://creativecommons.org/ns#"
   xmlns:rdf="http://www.w3.org/1999/02/22-rdf-syntax-ns#"
   xmlns:svg="http://www.w3.org/2000/svg"
   xmlns="http://www.w3.org/2000/svg"
   xmlns:sodipodi="http://sodipodi.sourceforge.net/DTD/sodipodi-0.dtd"
   xmlns:inkscape="http://www.inkscape.org/namespaces/inkscape"
   version="1.1"
   id="Layer_1"
   x="0px"
   y="0px"
   width="100px"
   height="100px"
   viewBox="0 0 100 100"
   enable-background="new 0 0 100 100"
   xml:space="preserve"
   inkscape:version="0.48.4 r9939"
   sodipodi:docname="influenza.svg"
   inkscape:export-xdpi="36"
   inkscape:export-ydpi="36"><metadata
     id="metadata9"><rdf:RDF><cc:Work
         rdf:about=""><dc:format>image/svg+xml</dc:format><dc:type
           rdf:resource="http://purl.org/dc/dcmitype/StillImage" /></cc:Work></rdf:RDF></metadata><defs
     id="defs7" /><sodipodi:namedview
     pagecolor="#ffffff"
     bordercolor="#666666"
     borderopacity="1"
     objecttolerance="10"
     gridtolerance="10"
     guidetolerance="10"
     inkscape:pageopacity="0"
     inkscape:pageshadow="2"
     inkscape:window-width="1366"
     inkscape:window-height="740"
     id="namedview5"
     showgrid="false"
     inkscape:zoom="2.36"
     inkscape:cx="43.514859"
     inkscape:cy="44.625427"
     inkscape:window-x="0"
     inkscape:window-y="28"
     inkscape:window-maximized="0"
     inkscape:current-layer="Layer_1" /><path
     d="M70.135,27.05c1.72,1.37,3.265,2.921,4.609,4.613c0.818,1.031,13.936-5.288,14.604-4.165  c0.618,1.027-11.201,9.496-10.718,10.593c0.799,1.804,1.421,3.688,1.846,5.624l0.323,4.961c0.061,1.878-0.054,3.745-0.337,5.579  c-0.122,0.803,6.695,7.536,10.166,5.023c3.522-2.545,7.621,1.106,5.834,5.254c-1.2,2.779-5.641,4.074-7.706-0.15  c-1.894-3.867-10.035-3.687-10.376-2.891c-0.872,2.023-1.965,3.948-3.266,5.728l-0.605,0.741c-1.338,1.752-2.856,3.336-4.514,4.711  c-1.009,0.835,5.23,14.193,4.128,14.881c-1.006,0.626-9.348-11.397-10.421-10.898c-1.769,0.819-3.616,1.458-5.511,1.899  l-5.734,0.887c-1.841-0.107-5.758-0.719-7.522-1.17c-0.771-0.198-7.973,6.106-5.836,9.863c2.166,3.812-1.774,7.633-5.665,5.44  c-2.602-1.469-3.464-6.1,0.853-7.812c3.951-1.563,4.516-9.848,3.766-10.267c-1.893-1.067-3.673-2.355-5.294-3.836l-0.166-0.392  c-1.62-1.49-3.053-3.154-4.278-4.934c-0.746-1.088-14.266,4.275-14.858,3.104c-0.544-1.072,11.832-8.665,11.425-9.798  c-0.67-1.854-1.158-3.779-1.454-5.736l-0.281-2.82c-0.085-1.877,0.009-3.748,0.271-5.583c0.115-0.801-6.778-7.455-10.221-4.906  c-3.497,2.59-7.631-1.014-5.891-5.184c1.168-2.794,5.596-4.14,7.708,0.061c1.934,3.847,10.072,3.571,10.407,2.767  c0.851-2.029,1.922-3.966,3.2-5.761l0.596-0.747c1.321-1.773,2.821-3.369,4.463-4.766c0.998-0.848-5.386-14.128-4.294-14.829  c1-0.641,9.475,11.284,10.542,10.776c1.758-0.84,4.96-1.712,6.852-2.177l4.456-0.151c1.844-0.058,3.673,0.064,5.471,0.357  c0.788,0.131,7.409-6.802,4.961-10.348c-2.489-3.6,1.103-7.763,5.167-5.93c2.724,1.23,3.98,5.764-0.167,7.854  c-3.803,1.917-3.645,10.217-2.861,10.573c1.979,0.892,3.862,2.013,5.606,3.337L70.135,27.05z"
     id="path3"
     fill="#6EAE9D" /></svg>
