<?xml version="1.0" encoding="UTF-8" standalone="no"?>
<!-- Generator: Adobe Illustrator 14.0.0, SVG Export Plug-In . SVG Version: 6.00 Build 43363)  -->

<svg
   xmlns:dc="http://purl.org/dc/elements/1.1/"
   xmlns:cc="http://creativecommons.org/ns#"
   xmlns:rdf="http://www.w3.org/1999/02/22-rdf-syntax-ns#"
   xmlns:svg="http://www.w3.org/2000/svg"
   xmlns="http://www.w3.org/2000/svg"
   xmlns:sodipodi="http://sodipodi.sourceforge.net/DTD/sodipodi-0.dtd"
   xmlns:inkscape="http://www.inkscape.org/namespaces/inkscape"
   version="1.1"
   id="Layer_1"
   x="0px"
   y="0px"
   width="90.830833"
   height="90.829361"
   viewBox="0 0 90.830834 90.829361"
   enable-background="new 0 0 100 100"
   xml:space="preserve"
   inkscape:version="0.48.4 r9939"
   sodipodi:docname="kidney.svg"
   inkscape:export-xdpi="35.671284"
   inkscape:export-ydpi="35.671284"><metadata
     id="metadata15"><rdf:RDF><cc:Work
         rdf:about=""><dc:format>image/svg+xml</dc:format><dc:type
           rdf:resource="http://purl.org/dc/dcmitype/StillImage" /><dc:title></dc:title></cc:Work></rdf:RDF></metadata><defs
     id="defs13" /><sodipodi:namedview
     pagecolor="#ffffff"
     bordercolor="#666666"
     borderopacity="1"
     objecttolerance="10"
     gridtolerance="10"
     guidetolerance="10"
     inkscape:pageopacity="0"
     inkscape:pageshadow="2"
     inkscape:window-width="1366"
     inkscape:window-height="740"
     id="namedview11"
     showgrid="false"
     fit-margin-top="0"
     fit-margin-left="15.33"
     fit-margin-right="0"
     fit-margin-bottom="0"
     inkscape:zoom="11.94"
     inkscape:cx="44.488666"
     inkscape:cy="38.491388"
     inkscape:window-x="0"
     inkscape:window-y="28"
     inkscape:window-maximized="0"
     inkscape:current-layer="Layer_1" /><path
     d="m 57.036832,43.957832 c 0.36,-2.546 16.062,-11.991 13.421,-26.699 -4.398,-24.4880002 -40.832,-22.2320002 -51.163,2.423 -10.3329991,24.65 -0.531,70.323 30.135,71.137 16.754,0.449 28.401,-13.51 22.788,-32.025 -4.082,-13.463 -16.473,-5.728 -15.181,-14.836 z"
     id="path3"
     inkscape:connector-curvature="0"
     style="fill:#6eae9d" /><path
     d="m 46.582832,21.430832 c 1.84,7.354 8.089,13.141 12.64,14.658 7.808,2.603 7.586,0.504 19.213,2.021 5.164,0.675 8.317,2.148 10.976,5.531 l -9.906,7.493 c 0,0 -0.522,-1.9 -6.632,-1.9 -6.064,0 -17.693,1.01 -21.738,16.178 -1.475,5.527 -20.132,-3.664 -11.122,-6.066 9.31,-2.482 10.167,-5.627 9.097,-11.125 -0.682,-3.507 -10.1,-1.859 -15.167,1.521 -10.616,7.076 -7.583,-24.777 -2.528,-14.665 1.377,2.753 20.226,9.605 18.202,6.067 -2.024,-3.541 -3.035,-10.115 -13.145,-11.626 -10.406,-1.561 8.594,-14.159 10.11,-8.087 z"
     id="path5"
     inkscape:connector-curvature="0"
     style="fill:#fdf5e1" /><path
     d="m 80.422832,50.520832 c 0,0 -0.521,-1.898 -6.631,-1.898 -6.064,0 -17.693,1.01 -21.737,16.178"
     id="path7"
     inkscape:connector-curvature="0"
     style="fill:none;stroke:#6eae9d;stroke-width:1" /><path
     d="m 47.501832,22.042832 c 1.839,7.354 8.089,13.141 12.64,14.658 7.809,2.603 7.586,0.504 19.212,2.021 5.165,0.674 8.318,2.148 10.977,5.531"
     id="path9"
     inkscape:connector-curvature="0"
     style="fill:none;stroke:#6eae9d;stroke-width:1" /></svg>
