<?xml version="1.0" encoding="UTF-8" standalone="no"?>
<!-- Generator: Adobe Illustrator 14.0.0, SVG Export Plug-In . SVG Version: 6.00 Build 43363)  -->

<svg
   xmlns:dc="http://purl.org/dc/elements/1.1/"
   xmlns:cc="http://creativecommons.org/ns#"
   xmlns:rdf="http://www.w3.org/1999/02/22-rdf-syntax-ns#"
   xmlns:svg="http://www.w3.org/2000/svg"
   xmlns="http://www.w3.org/2000/svg"
   xmlns:sodipodi="http://sodipodi.sourceforge.net/DTD/sodipodi-0.dtd"
   xmlns:inkscape="http://www.inkscape.org/namespaces/inkscape"
   version="1.1"
   id="Layer_1"
   x="0px"
   y="0px"
   width="244.36263"
   height="197.94582"
   viewBox="0 0 244.36262 197.94582"
   enable-background="new 0 0 100 100"
   xml:space="preserve"
   inkscape:version="0.48.4 r9939"
   sodipodi:docname="photos2.svg"
   inkscape:export-xdpi="17.23975"
   inkscape:export-ydpi="17.23975"><metadata
     id="metadata9"><rdf:RDF><cc:Work
         rdf:about=""><dc:format>image/svg+xml</dc:format><dc:type
           rdf:resource="http://purl.org/dc/dcmitype/StillImage" /><dc:title></dc:title></cc:Work></rdf:RDF></metadata><defs
     id="defs7" /><sodipodi:namedview
     pagecolor="#ffffff"
     bordercolor="#666666"
     borderopacity="1"
     objecttolerance="10"
     gridtolerance="10"
     guidetolerance="10"
     inkscape:pageopacity="0"
     inkscape:pageshadow="2"
     inkscape:window-width="1366"
     inkscape:window-height="740"
     id="namedview5"
     showgrid="false"
     inkscape:zoom="1.18"
     inkscape:cx="153.70583"
     inkscape:cy="13.271292"
     inkscape:window-x="0"
     inkscape:window-y="28"
     inkscape:window-maximized="0"
     inkscape:current-layer="Layer_1"
     inkscape:document-units="mm"
     fit-margin-top="5"
     fit-margin-left="5"
     fit-margin-right="5"
     fit-margin-bottom="5"><inkscape:grid
       type="xygrid"
       id="grid3982"
       units="mm"
       empspacing="5"
       visible="true"
       enabled="true"
       snapvisiblegridlinesonly="true"
       originx="62.591569mm"
       originy="11.445531mm" /></sodipodi:namedview><path
     style="fill:#6eae9d;fill-opacity:1;stroke:none"
     d="M 82.75 5 C 80.710249 4.9825156 78.70076 5.8395434 77.28125 7.53125 L 6.65625 91.6875 C 4.1326761 94.694978 4.5237718 99.132676 7.53125 101.65625 L 112.03125 189.34375 C 113.58887 190.65075 115.53788 191.15271 117.40625 190.9375 C 115.66339 190.33122 114.15757 189.06226 113.3125 187.25 L 95.96875 150.09375 C 94.764183 150.6407 93.301517 150.5023 92.21875 149.59375 L 29.78125 97.21875 C 28.277511 95.956963 28.081963 93.722489 29.34375 92.21875 L 55.0625 61.5625 C 54.652643 58.56679 56.202753 55.535594 59.09375 54.1875 L 62.625 52.53125 L 81.71875 29.78125 C 82.349644 29.02938 83.22271 28.61019 84.125 28.53125 C 85.02729 28.45231 85.96688 28.712856 86.71875 29.34375 L 95.875 37.03125 L 113.59375 28.75 L 87.25 6.65625 C 85.934228 5.5521864 84.336473 5.013599 82.75 5 z "
     transform="translate(-5.0053062e-6,0)"
     id="rect4594" /><path
     style="fill:#6eae9d;fill-opacity:1;stroke:none"
     d="M 161.375 7.09375 C 160.45494 7.1281563 159.51454 7.3352019 158.625 7.75 L 59.09375 54.1875 C 55.5356 55.846693 53.997057 60.0356 55.65625 63.59375 L 113.3125 187.25 C 114.17349 189.0964 115.71823 190.38275 117.5 190.96875 C 116.16402 189.68136 115.34375 187.85418 115.34375 185.84375 L 115.34375 144.875 C 114.0165 144.87413 112.75888 144.10483 112.15625 142.8125 L 77.6875 68.96875 C 76.857904 67.189675 77.627175 65.079596 79.40625 64.25 L 115.65625 47.34375 C 116.55083 44.455502 119.24764 42.34375 122.4375 42.34375 L 126.40625 42.34375 L 153.28125 29.8125 C 153.72602 29.605101 154.19622 29.485953 154.65625 29.46875 C 156.03634 29.417141 157.3778 30.196944 158 31.53125 L 163.03125 42.34375 L 182.59375 42.34375 L 168.0625 11.1875 C 166.81811 8.5188876 164.13519 6.9905312 161.375 7.09375 z "
     transform="translate(-5.0053062e-6,0)"
     id="rect4588" /><path
     style="fill:#6eae9d;fill-opacity:1;stroke:none"
     d="M 122.4375 42.34375 C 118.51152 42.34375 115.34375 45.511516 115.34375 49.4375 L 115.34375 185.84375 C 115.34375 189.76973 118.51152 192.9375 122.4375 192.9375 L 232.28125 192.9375 C 236.20723 192.9375 239.375 189.76973 239.375 185.84375 L 239.375 49.4375 C 239.375 45.511516 236.20723 42.34375 232.28125 42.34375 L 122.4375 42.34375 z M 136.59375 60.0625 L 218.09375 60.0625 C 220.05674 60.0625 221.65625 61.662008 221.65625 63.625 L 221.65625 145.125 C 221.65625 147.08799 220.05674 148.65625 218.09375 148.65625 L 136.59375 148.65625 C 134.63076 148.65625 133.0625 147.08799 133.0625 145.125 L 133.0625 63.625 C 133.0625 61.662008 134.63076 60.0625 136.59375 60.0625 z "
     transform="translate(-5.0053062e-6,0)"
     id="rect3978" /></svg>
